<svg xmlns="http://www.w3.org/2000/svg" viewBox="0 0 24 24"><path fill-rule="evenodd" d="M6.316 12.329H5.053v1.263h1.263V12.33zm-1.263-1.263c-.698 0-1.263.565-1.263 1.263v1.263c0 .698.565 1.263 1.263 1.263h1.263c.697 0 1.263-.565 1.263-1.263V12.33c0-.698-.566-1.263-1.263-1.263H5.053zM6.316 17.382H5.053v1.263h1.263v-1.263zm-1.263-1.264c-.698 0-1.263.566-1.263 1.264v1.263c0 .697.565 1.263 1.263 1.263h1.263c.697 0 1.263-.566 1.263-1.263v-1.263c0-.698-.566-1.264-1.263-1.264H5.053zM12.632 12.329h-1.264v1.263h1.264V12.33zm-1.264-1.263c-.697 0-1.263.565-1.263 1.263v1.263c0 .698.566 1.263 1.263 1.263h1.264c.697 0 1.263-.565 1.263-1.263V12.33c0-.698-.566-1.263-1.263-1.263h-1.264zM12.632 17.382h-1.264v1.263h1.264v-1.263zm-1.264-1.264c-.697 0-1.263.566-1.263 1.264v1.263c0 .697.566 1.263 1.263 1.263h1.264c.697 0 1.263-.566 1.263-1.263v-1.263c0-.698-.566-1.264-1.263-1.264h-1.264zM18.947 12.329h-1.263v1.263h1.263V12.33zm-1.263-1.263c-.698 0-1.263.565-1.263 1.263v1.263c0 .698.565 1.263 1.263 1.263h1.263c.698 0 1.263-.565 1.263-1.263V12.33c0-.698-.565-1.263-1.263-1.263h-1.263zM18.947 17.382h-1.263v1.263h1.263v-1.263zm-1.263-1.264c-.698 0-1.263.566-1.263 1.264v1.263c0 .697.565 1.263 1.263 1.263h1.263c.698 0 1.263-.566 1.263-1.263v-1.263c0-.698-.565-1.264-1.263-1.264h-1.263z" clip-rule="evenodd"/><path fill-rule="evenodd" d="M16.836 5.172a.632.632 0 01-.552-.702l.118-.983H7.443l.13.977a.632.632 0 11-1.252.167L6.17 3.487H2.526c-.697 0-1.263.565-1.263 1.263v2.526h21.474V4.75c0-.698-.566-1.263-1.263-1.263h-3.8l-.136 1.133a.632.632 0 01-.702.552zm.99-2.948h3.648A2.526 2.526 0 0124 4.75v16.421a2.526 2.526 0 01-2.526 2.526H2.526A2.526 2.526 0 010 21.171V4.751a2.526 2.526 0 012.526-2.527H6l-.1-.751a.632.632 0 011.252-.167l.123.918h9.278l.11-.918a.632.632 0 111.255.15l-.092.768zm4.91 6.316H1.264V21.17c0 .698.566 1.263 1.263 1.263h18.948c.697 0 1.263-.565 1.263-1.263V8.54z" clip-rule="evenodd"/></svg>