<svg width="489" height="176" viewBox="0 0 489 176" fill="none" xmlns="http://www.w3.org/2000/svg">
<path d="M55.689 93V36.5864H66.4882L90.5043 76.3983H84.7824L108.396 36.5864H119.114L119.275 93H107.025L106.945 55.364H109.201L90.3431 87.0363H84.46L65.1988 55.364H67.9389V93H55.689ZM132.66 93V36.5864H158.288C164.412 36.5864 169.812 37.7684 174.486 40.1324C179.161 42.4426 182.814 45.6931 185.447 49.8839C188.079 54.0746 189.396 59.0444 189.396 64.7932C189.396 70.4883 188.079 75.458 185.447 79.7025C182.814 83.8932 179.161 87.1706 174.486 89.5346C169.812 91.8449 164.412 93 158.288 93H132.66ZM145.715 82.2814H157.643C161.404 82.2814 164.654 81.583 167.394 80.186C170.188 78.7354 172.337 76.6938 173.842 74.0611C175.4 71.4285 176.179 68.3392 176.179 64.7932C176.179 61.1935 175.4 58.1041 173.842 55.5252C172.337 52.8926 170.188 50.8778 167.394 49.4809C164.654 48.0303 161.404 47.305 157.643 47.305H145.715V82.2814ZM217.778 93.9671C213.264 93.9671 208.939 93.3761 204.802 92.1941C200.665 90.9584 197.334 89.3734 194.809 87.4392L199.242 77.6071C201.659 79.3264 204.507 80.7502 207.784 81.8785C211.115 82.953 214.473 83.4903 217.858 83.4903C220.437 83.4903 222.506 83.2485 224.064 82.765C225.675 82.2277 226.857 81.5024 227.61 80.589C228.362 79.6756 228.738 78.628 228.738 77.446C228.738 75.9416 228.147 74.7596 226.965 73.9C225.783 72.9866 224.225 72.2613 222.291 71.724C220.356 71.133 218.207 70.5957 215.843 70.1122C213.533 69.5749 211.196 68.9302 208.832 68.178C206.522 67.4258 204.399 66.4587 202.465 65.2767C200.531 64.0947 198.946 62.5366 197.71 60.6025C196.528 58.6683 195.937 56.1968 195.937 53.1881C195.937 49.9645 196.797 47.0363 198.516 44.4037C200.289 41.7173 202.922 39.5951 206.414 38.037C209.96 36.4252 214.393 35.6193 219.712 35.6193C223.258 35.6193 226.75 36.0491 230.189 36.9087C233.627 37.7146 236.663 38.9504 239.295 40.6159L235.266 50.5286C232.633 49.0242 230 47.9228 227.368 47.2244C224.735 46.4722 222.156 46.0961 219.631 46.0961C217.106 46.0961 215.037 46.3916 213.426 46.9826C211.814 47.5736 210.659 48.3526 209.96 49.3197C209.262 50.2331 208.913 51.3076 208.913 52.5434C208.913 53.994 209.504 55.176 210.686 56.0894C211.868 56.949 213.426 57.6475 215.36 58.1847C217.294 58.722 219.416 59.2593 221.726 59.7965C224.09 60.3338 226.428 60.9517 228.738 61.6501C231.102 62.3486 233.251 63.2888 235.185 64.4708C237.119 65.6528 238.677 67.2109 239.859 69.1451C241.095 71.0793 241.713 73.5239 241.713 76.4789C241.713 79.6488 240.827 82.55 239.054 85.1827C237.281 87.8153 234.621 89.9375 231.075 91.5494C227.583 93.1612 223.15 93.9671 217.778 93.9671Z" fill="black"/>
<path d="M28.4455 154.408C24.8615 154.408 21.5496 153.819 18.51 152.639C15.4704 151.414 12.839 149.713 10.616 147.535C8.39301 145.357 6.64636 142.794 5.37606 139.845C4.15114 136.896 3.53867 133.675 3.53867 130.182C3.53867 126.689 4.15114 123.468 5.37606 120.519C6.64636 117.57 8.39301 115.007 10.616 112.829C12.8844 110.651 15.5384 108.973 18.578 107.793C21.6177 106.568 24.9295 105.956 28.5135 105.956C31.9615 105.956 35.2053 106.545 38.2449 107.725C41.2845 108.859 43.8478 110.583 45.9347 112.897L42.7363 116.095C40.7855 114.099 38.6305 112.67 36.2714 111.808C33.9123 110.901 31.3717 110.447 28.6496 110.447C25.7915 110.447 23.1375 110.946 20.6876 111.944C18.2378 112.897 16.1055 114.281 14.2908 116.095C12.4761 117.865 11.047 119.952 10.0036 122.356C9.00547 124.715 8.50643 127.324 8.50643 130.182C8.50643 133.04 9.00547 135.671 10.0036 138.076C11.047 140.435 12.4761 142.522 14.2908 144.337C16.1055 146.106 18.2378 147.49 20.6876 148.488C23.1375 149.441 25.7915 149.917 28.6496 149.917C31.3717 149.917 33.9123 149.463 36.2714 148.556C38.6305 147.649 40.7855 146.197 42.7363 144.201L45.9347 147.399C43.8478 149.713 41.2845 151.459 38.2449 152.639C35.2053 153.819 31.9388 154.408 28.4455 154.408ZM55.649 154V103.506H60.4807V154H55.649ZM89.1 154.34C85.3799 154.34 82.1134 153.569 79.3006 152.027C76.4878 150.439 74.2875 148.284 72.6996 145.562C71.1118 142.794 70.3178 139.641 70.3178 136.102C70.3178 132.564 71.0664 129.433 72.5635 126.711C74.106 123.989 76.1929 121.857 78.8243 120.315C81.501 118.727 84.4952 117.933 87.8071 117.933C91.1643 117.933 94.1358 118.704 96.7218 120.246C99.3531 121.744 101.417 123.876 102.914 126.643C104.412 129.365 105.16 132.518 105.16 136.102C105.16 136.329 105.137 136.579 105.092 136.851C105.092 137.078 105.092 137.327 105.092 137.6H73.9926V133.993H102.506L100.601 135.422C100.601 132.836 100.034 130.545 98.8994 128.549C97.8106 126.507 96.3135 124.919 94.408 123.785C92.5026 122.651 90.3023 122.084 87.8071 122.084C85.3572 122.084 83.1569 122.651 81.2061 123.785C79.2553 124.919 77.7354 126.507 76.6466 128.549C75.5578 130.59 75.0134 132.927 75.0134 135.558V136.307C75.0134 139.029 75.6032 141.433 76.7827 143.52C78.0077 145.562 79.6863 147.172 81.8185 148.352C83.9962 149.486 86.4687 150.053 89.2361 150.053C91.4138 150.053 93.4326 149.667 95.2927 148.896C97.1982 148.125 98.8314 146.945 100.192 145.357L102.914 148.488C101.327 150.393 99.3304 151.845 96.9259 152.843C94.5668 153.841 91.9582 154.34 89.1 154.34ZM136.387 154V146.106L136.183 144.813V131.611C136.183 128.571 135.321 126.235 133.597 124.602C131.918 122.969 129.4 122.152 126.043 122.152C123.729 122.152 121.529 122.538 119.442 123.309C117.355 124.08 115.586 125.101 114.134 126.371L111.956 122.764C113.771 121.222 115.949 120.042 118.489 119.226C121.03 118.364 123.706 117.933 126.519 117.933C131.147 117.933 134.708 119.09 137.203 121.403C139.744 123.672 141.014 127.142 141.014 131.815V154H136.387ZM124.069 154.34C121.393 154.34 119.056 153.909 117.06 153.047C115.109 152.14 113.612 150.915 112.569 149.373C111.525 147.785 111.004 145.97 111.004 143.928C111.004 142.068 111.435 140.39 112.297 138.893C113.204 137.35 114.656 136.125 116.652 135.218C118.693 134.265 121.415 133.789 124.818 133.789H137.135V137.395H124.954C121.506 137.395 119.102 138.008 117.741 139.233C116.425 140.458 115.767 141.978 115.767 143.792C115.767 145.834 116.561 147.467 118.149 148.692C119.737 149.917 121.96 150.529 124.818 150.529C127.54 150.529 129.876 149.917 131.827 148.692C133.823 147.422 135.275 145.607 136.183 143.248L137.271 146.582C136.364 148.942 134.776 150.824 132.508 152.231C130.285 153.637 127.472 154.34 124.069 154.34ZM154.138 154V118.273H158.765V128.004L158.289 126.303C159.287 123.581 160.965 121.517 163.324 120.11C165.684 118.659 168.61 117.933 172.103 117.933V122.628C171.922 122.628 171.74 122.628 171.559 122.628C171.377 122.583 171.196 122.56 171.014 122.56C167.249 122.56 164.3 123.717 162.168 126.031C160.035 128.299 158.969 131.543 158.969 135.762V154H154.138ZM191.912 154L213.144 106.364H224.032L245.332 154H233.764L216.342 111.944H220.698L203.208 154H191.912ZM202.528 143.792L205.454 135.422H229.953L232.947 143.792H202.528ZM249.526 154V103.506H260.142V154H249.526ZM269.995 154V117.388H280.611V154H269.995ZM275.303 112.284C273.352 112.284 271.764 111.717 270.539 110.583C269.314 109.449 268.702 108.043 268.702 106.364C268.702 104.685 269.314 103.279 270.539 102.145C271.764 101.011 273.352 100.444 275.303 100.444C277.253 100.444 278.841 100.988 280.066 102.077C281.291 103.12 281.904 104.481 281.904 106.16C281.904 107.929 281.291 109.404 280.066 110.583C278.887 111.717 277.299 112.284 275.303 112.284ZM307.68 167.746C304.232 167.746 300.898 167.315 297.677 166.453C294.501 165.637 291.847 164.389 289.715 162.711L293.934 155.089C295.476 156.359 297.427 157.357 299.786 158.083C302.191 158.854 304.55 159.24 306.864 159.24C310.629 159.24 313.351 158.401 315.03 156.722C316.754 155.043 317.616 152.548 317.616 149.236V143.724L318.296 134.537L318.16 125.282V117.388H328.232V147.875C328.232 154.681 326.462 159.694 322.924 162.915C319.385 166.136 314.304 167.746 307.68 167.746ZM306.047 152.231C302.644 152.231 299.559 151.505 296.792 150.053C294.07 148.556 291.87 146.492 290.191 143.86C288.558 141.184 287.741 138.076 287.741 134.537C287.741 130.953 288.558 127.846 290.191 125.214C291.87 122.538 294.07 120.473 296.792 119.022C299.559 117.57 302.644 116.844 306.047 116.844C309.132 116.844 311.854 117.479 314.213 118.749C316.572 119.974 318.41 121.902 319.725 124.534C321.041 127.12 321.699 130.454 321.699 134.537C321.699 138.575 321.041 141.91 319.725 144.541C318.41 147.127 316.572 149.055 314.213 150.325C311.854 151.596 309.132 152.231 306.047 152.231ZM308.156 143.52C310.017 143.52 311.672 143.157 313.124 142.431C314.576 141.66 315.71 140.594 316.527 139.233C317.343 137.872 317.752 136.307 317.752 134.537C317.752 132.723 317.343 131.157 316.527 129.842C315.71 128.481 314.576 127.437 313.124 126.711C311.672 125.94 310.017 125.555 308.156 125.555C306.296 125.555 304.64 125.94 303.189 126.711C301.737 127.437 300.58 128.481 299.718 129.842C298.901 131.157 298.493 132.723 298.493 134.537C298.493 136.307 298.901 137.872 299.718 139.233C300.58 140.594 301.737 141.66 303.189 142.431C304.64 143.157 306.296 143.52 308.156 143.52ZM360.365 116.844C363.269 116.844 365.855 117.434 368.123 118.613C370.437 119.747 372.252 121.517 373.567 123.921C374.883 126.28 375.541 129.32 375.541 133.04V154H364.925V134.673C364.925 131.725 364.267 129.547 362.951 128.14C361.681 126.734 359.866 126.031 357.507 126.031C355.828 126.031 354.309 126.394 352.948 127.12C351.632 127.8 350.588 128.866 349.817 130.318C349.091 131.77 348.728 133.63 348.728 135.898V154H338.112V117.388H348.252V127.528L346.347 124.466C347.662 122.016 349.545 120.133 351.995 118.817C354.445 117.502 357.235 116.844 360.365 116.844ZM403.599 154.544C399.425 154.544 395.751 153.728 392.575 152.095C389.444 150.461 387.017 148.238 385.293 145.426C383.569 142.567 382.707 139.324 382.707 135.694C382.707 132.019 383.547 128.776 385.225 125.963C386.949 123.105 389.286 120.882 392.235 119.294C395.183 117.661 398.518 116.844 402.238 116.844C405.822 116.844 409.043 117.615 411.901 119.158C414.805 120.655 417.096 122.832 418.775 125.691C420.453 128.503 421.292 131.883 421.292 135.83C421.292 136.239 421.27 136.715 421.224 137.259C421.179 137.758 421.134 138.235 421.088 138.688H391.35V132.496H415.508L411.425 134.333C411.425 132.428 411.039 130.772 410.268 129.365C409.497 127.959 408.431 126.87 407.07 126.099C405.709 125.282 404.121 124.874 402.306 124.874C400.491 124.874 398.881 125.282 397.474 126.099C396.113 126.87 395.047 127.982 394.276 129.433C393.505 130.84 393.119 132.518 393.119 134.469V136.102C393.119 138.099 393.55 139.868 394.412 141.41C395.32 142.908 396.567 144.064 398.155 144.881C399.788 145.652 401.694 146.038 403.871 146.038C405.822 146.038 407.523 145.743 408.975 145.153C410.472 144.564 411.833 143.679 413.058 142.499L418.707 148.624C417.028 150.529 414.918 152.004 412.378 153.047C409.837 154.045 406.911 154.544 403.599 154.544ZM428.36 154V117.388H438.5V127.732L437.071 124.738C438.16 122.152 439.906 120.201 442.311 118.885C444.715 117.524 447.642 116.844 451.089 116.844V126.643C450.636 126.598 450.227 126.575 449.865 126.575C449.502 126.53 449.116 126.507 448.708 126.507C445.804 126.507 443.445 127.347 441.63 129.025C439.861 130.658 438.976 133.222 438.976 136.715V154H428.36ZM469.985 154.544C466.854 154.544 463.838 154.181 460.934 153.456C458.076 152.684 455.807 151.732 454.129 150.597L457.668 142.976C459.346 144.019 461.32 144.881 463.588 145.562C465.902 146.197 468.17 146.514 470.393 146.514C472.843 146.514 474.567 146.219 475.565 145.63C476.609 145.04 477.13 144.223 477.13 143.18C477.13 142.318 476.722 141.683 475.905 141.274C475.134 140.821 474.091 140.48 472.775 140.254C471.459 140.027 470.008 139.8 468.42 139.573C466.877 139.346 465.312 139.051 463.724 138.688C462.136 138.28 460.685 137.69 459.369 136.919C458.053 136.148 456.987 135.104 456.17 133.789C455.399 132.473 455.014 130.772 455.014 128.685C455.014 126.371 455.671 124.33 456.987 122.56C458.348 120.791 460.299 119.407 462.839 118.409C465.38 117.366 468.42 116.844 471.958 116.844C474.454 116.844 476.994 117.116 479.58 117.661C482.166 118.205 484.321 118.999 486.045 120.042L482.506 127.596C480.737 126.553 478.945 125.849 477.13 125.486C475.361 125.078 473.637 124.874 471.958 124.874C469.599 124.874 467.875 125.192 466.786 125.827C465.698 126.462 465.153 127.278 465.153 128.277C465.153 129.184 465.539 129.864 466.31 130.318C467.127 130.772 468.193 131.135 469.509 131.407C470.824 131.679 472.253 131.929 473.796 132.155C475.384 132.337 476.971 132.632 478.559 133.04C480.147 133.448 481.576 134.038 482.847 134.81C484.162 135.535 485.228 136.556 486.045 137.872C486.862 139.142 487.27 140.821 487.27 142.908C487.27 145.176 486.589 147.195 485.228 148.964C483.867 150.688 481.894 152.049 479.308 153.047C476.767 154.045 473.66 154.544 469.985 154.544Z" fill="black"/>
</svg>
